<svg xmlns="http://www.w3.org/2000/svg" aria-hidden="true" style="position:absolute;width:0;height:0;overflow:hidden">
  <defs>
    <symbol id="playstore" viewBox="0 0 27 32">
      <path fill="#ea4335" d="M12.55 15.311.115 28.808l.002.008c.382 1.465 1.69 2.544 3.243 2.544.621 0 1.204-.172 1.704-.473l.04-.024 13.997-8.259-6.551-7.293z" style="fill:var(--color1, #ea4335)"/>
      <path fill="#fbbc04" d="m25.131 13.013-.012-.008-6.043-3.582-6.808 6.195 6.833 6.985 6.011-3.546a3.452 3.452 0 0 0 1.769-3.028 3.444 3.444 0 0 0-1.75-3.016z" style="fill:var(--color2, #fbbc04)"/>
      <path fill="#4285f4" d="M.114 3.191A3.433 3.433 0 0 0 0 4.075v23.85c0 .306.04.602.116.883l12.862-13.152L.115 3.191z" style="fill:var(--color3, #4285f4)"/>
      <path fill="#34a853" d="m12.642 16 6.436-6.58L5.097 1.131A3.303 3.303 0 0 0 3.361.64C1.808.64.497 1.721.115 3.188l-.001.004 12.528 12.809z" style="fill:var(--color4, #34a853)"/>
    </symbol>
    <symbol id="burger" viewBox="0 0 32 32">
      <path d="M4 9.333V6.666h24v2.667H4zm0 16v-2.667h24v2.667H4zm0-8v-2.667h24v2.667H4z"/>
    </symbol>
    <symbol id="arrow_back_ios" viewBox="0 0 32 32">
      <path d="M29.667 10.667 16.334 24 3.001 10.667 5.368 8.3l10.967 10.967L27.302 8.3l2.367 2.367z"/>
    </symbol>
    <symbol id="discord" viewBox="0 0 32 32">
      <path d="M25.694 7.106a22.596 22.596 0 0 0-5.693-1.773.13.13 0 0 0-.093.04c-.24.44-.52 1.013-.707 1.453a21.453 21.453 0 0 0-6.4 0 13.515 13.515 0 0 0-.72-1.453c-.013-.027-.053-.04-.093-.04-2 .347-3.907.947-5.693 1.773-.013 0-.027.013-.04.027C2.628 12.56 1.628 17.84 2.122 23.066c0 .027.013.053.04.067 2.4 1.76 4.707 2.827 6.987 3.533.04.013.08 0 .093-.027a17.287 17.287 0 0 0 1.427-2.32c.027-.053 0-.107-.053-.12-.76-.293-1.48-.64-2.187-1.04-.053-.027-.053-.107-.013-.147.147-.107.293-.227.44-.333a.08.08 0 0 1 .093-.013c4.587 2.093 9.533 2.093 14.067 0 .027-.013.067-.013.093.013.147.12.293.227.44.347.053.04.053.12-.013.147a14.28 14.28 0 0 1-2.187 1.04c-.053.013-.067.08-.053.12.427.813.907 1.587 1.427 2.32.04.013.08.027.12.013 2.293-.707 4.6-1.773 7-3.533a.073.073 0 0 0 .04-.067c.587-6.04-.973-11.28-4.133-15.933-.013-.013-.027-.027-.053-.027zM11.361 19.88c-1.373 0-2.52-1.267-2.52-2.827s1.12-2.827 2.52-2.827c1.413 0 2.533 1.28 2.52 2.827 0 1.56-1.12 2.827-2.52 2.827zm9.293 0c-1.373 0-2.52-1.267-2.52-2.827s1.12-2.827 2.52-2.827c1.413 0 2.533 1.28 2.52 2.827 0 1.56-1.107 2.827-2.52 2.827z"/>
    </symbol>
    <symbol id="prime_twitter" viewBox="0 0 32 32">
      <path d="M25.2 1.499h4.907l-10.72 12.283L32 30.5h-9.874l-7.739-10.137L5.541 30.5H.629l11.465-13.143L0 1.501h10.126l6.985 9.264L25.2 1.499zm-1.726 26.057h2.72L8.64 4.29H5.723l17.751 23.266z"/>
    </symbol>
    <symbol id="facebook" viewBox="0 0 32 32">
      <path d="M29.334 16c0-7.36-5.973-13.333-13.333-13.333S2.668 8.64 2.668 16c0 6.453 4.587 11.827 10.667 13.067V20h-2.667v-4h2.667v-3.333A4.672 4.672 0 0 1 18.002 8h3.333v4h-2.667c-.733 0-1.333.6-1.333 1.333V16h4v4h-4v9.267c6.733-.667 12-6.347 12-13.267z"/>
    </symbol>
    <symbol id="instagram" viewBox="0 0 32 32">
      <path d="M10.4 2.667h11.2a7.739 7.739 0 0 1 7.733 7.733v11.2a7.733 7.733 0 0 1-7.733 7.733H10.4A7.739 7.739 0 0 1 2.667 21.6V10.4A7.733 7.733 0 0 1 10.4 2.667zm-.266 2.667a4.8 4.8 0 0 0-4.8 4.8v11.733c0 2.653 2.147 4.8 4.8 4.8h11.733a4.8 4.8 0 0 0 4.8-4.8V10.134c0-2.653-2.147-4.8-4.8-4.8H10.134zm12.866 2a1.667 1.667 0 1 1 0 3.334 1.667 1.667 0 0 1 0-3.334zm-7 2a6.67 6.67 0 0 1 4.714 11.381A6.668 6.668 0 1 1 16 9.334zM16 12a4.003 4.003 0 0 0-4 4 4.003 4.003 0 0 0 4 4 4.003 4.003 0 0 0 4-4 4.003 4.003 0 0 0-4-4z"/>
    </symbol>
    <symbol id="alarm" viewBox="0 0 33 32">
      <path d="M16.666 29.333c-1.667 0-3.228-.317-4.683-.95s-2.722-1.489-3.8-2.567c-1.078-1.078-1.933-2.344-2.567-3.8s-.95-3.017-.95-4.683c0-1.667.317-3.228.95-4.683s1.489-2.722 2.567-3.8c1.078-1.078 2.344-1.933 3.8-2.567s3.017-.95 4.683-.95c1.667 0 3.228.317 4.683.95s2.722 1.489 3.8 2.567c1.078 1.078 1.933 2.344 2.567 3.8s.95 3.017.95 4.683c0 1.667-.317 3.228-.95 4.683s-1.489 2.722-2.567 3.8c-1.078 1.078-2.344 1.933-3.8 2.567s-3.017.95-4.683.95zm3.733-6.4 1.867-1.867-4.267-4.267v-6.133h-2.667v7.2l5.067 5.067zM8.133 3.133 10 5l-5.667 5.667L2.466 8.8l5.667-5.667zm17.066 0L30.866 8.8l-1.867 1.867L23.332 5l1.867-1.867zm-8.533 23.533c2.6 0 4.806-.906 6.617-2.717S26 19.932 26 17.332c0-2.6-.906-4.806-2.717-6.617s-4.017-2.717-6.617-2.717c-2.6 0-4.806.906-6.617 2.717s-2.717 4.017-2.717 6.617c0 2.6.906 4.806 2.717 6.617s4.017 2.717 6.617 2.717z"/>
    </symbol>
    <symbol id="distance" viewBox="0 0 33 32">
      <path d="M16.667 29.333c-2.356 0-4.278-.372-5.767-1.117s-2.233-1.706-2.233-2.883c0-.533.161-1.028.483-1.483s.772-.85 1.35-1.183l2.1 1.967c-.2.089-.417.189-.65.3s-.417.244-.55.4c.289.356.956.667 2 .933s2.133.4 3.267.4 2.228-.133 3.283-.4c1.056-.267 1.728-.578 2.017-.933-.156-.178-.356-.322-.6-.433s-.478-.211-.7-.3l2.067-2c.622.356 1.1.761 1.433 1.217s.5.961.5 1.517c0 1.178-.744 2.139-2.233 2.883s-3.411 1.117-5.767 1.117zM16.7 22c2.2-1.622 3.856-3.25 4.967-4.883s1.667-3.272 1.667-4.917c0-2.267-.722-3.978-2.167-5.133s-2.944-1.733-4.5-1.733-3.056.578-4.5 1.733S10 9.934 10 12.2c0 1.489.544 3.039 1.633 4.65S14.411 20.178 16.7 22zm-.033 3.333c-3.133-2.311-5.472-4.556-7.017-6.733s-2.317-4.311-2.317-6.4c0-1.578.283-2.961.85-4.15s1.294-2.183 2.183-2.983c.889-.8 1.889-1.4 3-1.8s2.211-.6 3.3-.6 2.189.2 3.3.6c1.111.4 2.111 1 3 1.8s1.617 1.794 2.183 2.983c.567 1.189.85 2.572.85 4.15 0 2.089-.772 4.222-2.317 6.4s-3.883 4.422-7.017 6.733zm0-10.666c.733 0 1.361-.261 1.883-.783s.783-1.15.783-1.883c0-.733-.261-1.361-.783-1.883s-1.15-.783-1.883-.783c-.733 0-1.361.261-1.883.783s-.783 1.15-.783 1.883c0 .733.261 1.361.783 1.883s1.15.783 1.883.783z"/>
    </symbol>
    <symbol id="email" viewBox="0 0 33 32">
      <path d="M6 26.667c-.733 0-1.361-.261-1.883-.783s-.783-1.15-.783-1.883v-16c0-.733.261-1.361.783-1.883S5.267 5.335 6 5.335h21.333c.733 0 1.361.261 1.883.783s.783 1.15.783 1.883v16c0 .733-.261 1.361-.783 1.883s-1.15.783-1.883.783H6zm10.667-9.334L6 10.666v13.333h21.333V10.666l-10.667 6.667zm0-2.666L27.334 8H6.001l10.667 6.667zM6 10.667z"/>
    </symbol>
    <symbol id="marker" viewBox="0 0 6 6">
  <circle cx="3" cy="3" r="3" />
</symbol>
  </defs>
</svg>
